<?xml version="1.0" encoding="UTF-8" standalone="no"?>
<!-- Created with Inkscape (http://www.inkscape.org/) -->

<svg
   version="1.1"
   id="svg1"
   width="43.980743"
   height="20.133232"
   viewBox="0 0 43.980743 20.133232"
   sodipodi:docname="modern-trailer-rental-logo-ffeaturing-orange-truck-shape-vector.jpg"
   inkscape:version="0.0"
   inkscape:dataloss="true"
   xmlns:inkscape="http://www.inkscape.org/namespaces/inkscape"
   xmlns:sodipodi="http://sodipodi.sourceforge.net/DTD/sodipodi-0.dtd"
   xmlns="http://www.w3.org/2000/svg"
   xmlns:svg="http://www.w3.org/2000/svg">
  <defs
     id="defs1" />
  <sodipodi:namedview
     id="namedview1"
     pagecolor="#ffffff"
     bordercolor="#000000"
     borderopacity="0.25"
     inkscape:showpageshadow="2"
     inkscape:pageopacity="0.0"
     inkscape:pagecheckerboard="0"
     inkscape:deskcolor="#d1d1d1"
     showgrid="false"
     showguides="true"
     inkscape:zoom="12.846348"
     inkscape:cx="30.942646"
     inkscape:cy="29.385783"
     inkscape:window-width="1680"
     inkscape:window-height="1050"
     inkscape:window-x="1360"
     inkscape:window-y="0"
     inkscape:window-maximized="0"
     inkscape:current-layer="g1">
    <inkscape:page
       x="0"
       y="0"
       width="43.980743"
       height="20.133232"
       id="page2"
       margin="0"
       bleed="0" />
  </sodipodi:namedview>
  <g
     inkscape:groupmode="layer"
     inkscape:label="Image"
     id="g1"
     transform="translate(-6.0096284,-17.933384)">
    <g
       id="g73"
       transform="translate(9.6206008,13.119892)">
      <path
         d="m 6.5271364,16.413551 c -1.1497426,0 -1.7887849,2.436285 -2.2451542,3.436702 1.4247969,-2.111594 1.9704443,-2.678366 6.3236228,-2.452113 -0.972283,3.195911 -10.77050729,1.704673 -12.2967722,4.499889 -0.5477096,0.976069 -0.6847306,1.459297 -1.4900519,1.192047 l -0.4297536,1.802025 3.84757986,0.02296 c 0.329976,-1.256564 1.53827354,-2.302485 2.83744164,-2.302987 1.3266357,-0.0012 2.4798967,1.032749 2.7853645,2.323738 1.0856252,0.02198 13.4220597,0 13.4220597,0 -3.154917,0.098 -5.122154,-0.472163 -7.403979,-1.387409 2.369058,0.990215 7.281063,0.840182 10.380676,0.3553 -14.0308833,-0.409601 -8.1628,-7.920129 -6.717985,-9.141143 -3.615261,1.64581 -5.395726,1.612047 -9.0130486,1.650984 z"
         style="fill:#fd8005;fill-opacity:1;stroke:none;stroke-width:0.151071;stroke-dasharray:none"
         id="path35"
         sodipodi:nodetypes="cccccccccsccccc" />
      <path
         d="m 30.388254,4.8134919 c 0.648691,0.6023089 1.21005,1.292294 1.6678,2.0499469 0.15938,0.2648387 0.30574,0.5372949 0.438566,0.8163965 l -3.599697,1.7982872 -5.72819,2.8621435 6.081429,-2.4529808 3.573014,-1.4413847 c 0.184211,0.4926162 0.327199,0.999674 0.427519,1.5159488 0.149394,0.7664737 0.203768,1.5484407 0.161861,2.3282157 l -2.586256,0.611917 -7.353788,1.738855 7.599841,-0.614421 2.125145,-0.170408 c -0.313816,1.397823 -0.939591,2.706612 -1.83053,3.828494 l -0.549255,0.01981 -8.287909,0.276481 -0.382558,0.01133 0.36954,0.04526 7.657026,0.898515 c -1.261145,1.101898 -2.791073,1.850974 -4.434856,2.171368 -1.027874,0.199753 -2.081694,0.228266 -3.118865,0.08439 1.27492,0.86794 2.689193,0.996862 8.111557,1.304685 -14.612985,0.501253 5.937394,2.212117 9.640123,2.404537 l -5.820746,0.03494 C 27.53025,24.714499 19.257232,25.363187 13.726157,24.150767 18.877791,24.766298 21.620451,24.51059 23.498842,23.809906 14.211706,23.514 10.863044,19.499008 16.55521,14.511667 l 2.401849,-1.682229 -5.77e-4,-0.003 2.301381,-1.611558 5.146923,-3.6086613 2.737512,-1.9189458 z"
         style="fill:#fd8005;fill-opacity:1;stroke:none;stroke-width:0.124308"
         id="path73"
         sodipodi:nodetypes="ccccccccccccccccccccccccccccccccc" />
    </g>
  </g>
</svg>
